<?xml version="1.0" encoding="UTF-8" standalone="no"?>
<!DOCTYPE svg PUBLIC "-//W3C//DTD SVG 1.1//EN" "http://www.w3.org/Graphics/SVG/1.1/DTD/svg11.dtd">
<svg width="100%" height="100%" viewBox="0 0 792 308" version="1.1" xmlns="http://www.w3.org/2000/svg" xmlns:xlink="http://www.w3.org/1999/xlink" xml:space="preserve" xmlns:serif="http://www.serif.com/" style="fill-rule:evenodd;clip-rule:evenodd;stroke-linejoin:round;stroke-miterlimit:2;">
    <path d="M181.22,183.21C172.22,187.01 162.32,189.11 151.92,189.11C141.52,189.11 131.62,187.01 122.62,183.21C118.82,174.21 116.72,164.31 116.72,153.91C116.72,143.51 118.82,133.61 122.62,124.61C131.62,120.81 141.52,118.71 151.92,118.71C162.32,118.71 172.22,120.81 181.22,124.61C185.02,133.61 187.12,143.51 187.12,153.91C187.12,164.21 185.02,174.11 181.22,183.21ZM130.52,197.41C136.22,205.51 143.52,212.51 151.92,217.81C160.32,212.41 167.62,205.51 173.32,197.41C166.52,199.11 159.32,200.11 151.92,200.11C144.52,200.11 137.32,199.11 130.52,197.41ZM151.92,89.81C143.52,95.21 136.22,102.11 130.52,110.21C137.32,108.51 144.52,107.51 151.92,107.51C159.32,107.51 166.52,108.41 173.32,110.21C167.62,102.11 160.32,95.21 151.92,89.81ZM114.22,116.21C120.42,103.41 129.62,92.41 140.92,84.01C131.82,80.11 121.72,77.91 111.12,77.91C100.52,77.91 90.82,80.01 81.82,83.81C78.02,92.81 75.92,102.71 75.92,113.11C75.92,123.51 78.12,133.71 82.02,142.91C90.42,131.61 101.42,122.41 114.22,116.21ZM151.92,77.01C164.12,70.51 177.92,66.81 192.62,66.81C200.02,66.81 207.22,67.71 214.02,69.51C200.22,49.91 177.52,37.11 151.92,37.11C126.32,37.11 103.52,49.91 89.82,69.51C96.62,67.81 103.82,66.81 111.22,66.81C125.92,66.91 139.72,70.61 151.92,77.01ZM87.92,153.81C93.32,162.21 100.22,169.51 108.32,175.21C106.62,168.41 105.62,161.21 105.62,153.81C105.62,146.41 106.52,139.21 108.32,132.41C100.22,138.21 93.22,145.41 87.92,153.81ZM192.62,77.91C182.02,77.91 172.02,80.11 162.82,84.01C174.12,92.41 183.32,103.41 189.52,116.21C202.32,122.41 213.32,131.61 221.72,142.91C225.62,133.81 227.82,123.71 227.82,113.11C227.82,102.51 225.72,92.81 221.92,83.81C212.92,80.01 203.02,77.91 192.62,77.91ZM67.62,91.71C48.02,105.51 35.22,128.21 35.22,153.81C35.22,179.41 48.02,202.21 67.62,215.91C65.92,209.11 64.92,201.91 64.92,194.51C64.92,179.81 68.62,165.91 75.12,153.81C68.62,141.61 64.92,127.81 64.92,113.11C64.92,105.71 65.92,98.61 67.62,91.71ZM236.22,91.71C237.92,98.51 238.92,105.71 238.92,113.11C238.92,127.81 235.22,141.71 228.72,153.81C235.22,166.01 238.92,179.81 238.92,194.51C238.92,201.91 238.02,209.11 236.22,215.91C255.82,202.11 268.62,179.41 268.62,153.81C268.62,128.21 255.72,105.51 236.22,91.71ZM215.92,153.81C210.52,145.41 203.62,138.11 195.52,132.41C197.22,139.21 198.22,146.41 198.22,153.81C198.22,161.21 197.32,168.41 195.52,175.21C203.62,169.51 210.52,162.21 215.92,153.81ZM140.92,223.71C129.62,215.31 120.42,204.31 114.22,191.51C101.42,185.31 90.42,176.11 82.02,164.81C78.12,173.91 75.92,184.01 75.92,194.61C75.92,205.21 78.02,214.91 81.82,223.91C90.82,227.71 100.72,229.81 111.12,229.81C121.52,229.81 131.82,227.61 140.92,223.71ZM151.92,230.61C139.72,237.11 125.92,240.81 111.22,240.81C103.82,240.81 96.62,239.91 89.82,238.11C103.62,257.71 126.32,270.51 151.92,270.51C177.52,270.51 200.32,257.71 214.02,238.11C207.22,239.81 200.02,240.81 192.62,240.81C177.92,240.81 164.02,237.11 151.92,230.61ZM189.52,191.51C183.32,204.31 174.12,215.31 162.82,223.71C171.92,227.61 182.02,229.81 192.62,229.81C203.22,229.81 212.92,227.71 221.92,223.91C225.72,214.91 227.82,205.01 227.82,194.61C227.82,184.21 225.62,174.01 221.72,164.81C213.42,176.11 202.32,185.31 189.52,191.51Z" style="fill:url(#_Linear1);fill-rule:nonzero;"/>
    <g>
        <g>
            <path d="M361.32,83.71C348.72,83.71 338.12,85.21 330.72,86.61C328.32,87.11 327.22,88.41 327.22,90.41L327.22,102.11C327.22,104.71 328.72,105.21 330.52,105.21L331.42,105.21C337.42,104.51 349.52,103.71 361.22,103.71C372.02,103.71 377.32,106.61 377.32,118.51L377.32,126.61L365.82,126.61C334.02,126.61 321.22,137.41 321.22,158.31L321.22,159.01C321.22,183.71 337.72,189.61 352.92,189.61C361.72,189.61 370.32,186.71 378.72,181.51L378.72,184.41C378.72,186.41 380.32,188.11 382.42,188.11L398.02,188.11C400.02,188.11 401.72,186.51 401.72,184.41L401.72,118.71C401.52,95.31 387.32,83.71 361.32,83.71ZM377.42,165.31C372.12,168.21 365.32,170.41 358.72,170.41C349.62,170.41 345.52,168.01 345.52,159.11L345.52,158.41C345.52,148.21 349.22,142.81 365.82,142.81L377.32,142.81L377.32,165.31L377.42,165.31Z" style="fill:rgb(5,34,103);fill-rule:nonzero;"/>
            <path d="M477.12,186.21C472.92,187.31 464.72,188.61 453.52,188.61C429.72,188.61 411.82,174.01 411.82,144.11L411.82,127.11C411.82,97.31 429.72,82.61 453.52,82.61C464.72,82.61 472.92,83.91 477.12,85.01C480.22,85.71 480.92,86.81 480.92,89.81L480.92,101.71C480.92,103.51 479.42,104.41 477.62,104.41L477.12,104.41C469.82,103.51 465.42,103.11 453.52,103.11C444.92,103.11 435.92,108.01 435.92,127.11L435.92,144.11C435.92,163.11 444.92,168.11 453.52,168.11C465.42,168.11 469.82,167.71 477.12,166.81L477.62,166.81C479.42,166.81 480.92,167.71 480.92,169.51L480.92,181.41C480.92,184.31 480.22,185.41 477.12,186.21Z" style="fill:rgb(5,34,103);fill-rule:nonzero;"/>
            <path d="M574.32,188.21L552.02,188.21C550.02,188.21 547.82,186.21 546.72,184.51L518.02,142.81L518.02,184.31C518.02,186.31 516.42,188.11 514.32,188.11L497.52,188.11C495.52,188.11 493.82,186.31 493.82,184.31L493.82,52.61C493.82,50.61 495.42,48.91 497.52,48.91L514.32,48.91C516.32,48.91 518.02,50.51 518.02,52.61L518.02,128.91L549.32,87.21C550.62,85.61 552.42,85.01 553.52,85.01L574.02,85.01C575.82,85.01 576.72,85.71 576.72,87.01C576.72,87.51 576.52,88.11 576.02,88.81L539.22,134.01L576.32,184.51C576.72,185.01 576.82,185.41 576.82,186.01C576.82,187.11 575.72,188.21 574.32,188.21Z" style="fill:rgb(5,34,103);fill-rule:nonzero;"/>
            <path d="M609.22,188.21L592.22,188.21C590.22,188.21 588.52,186.41 588.52,184.41L588.52,52.61C588.52,50.61 590.12,48.91 592.22,48.91L609.22,48.91C611.22,48.91 612.72,50.51 612.72,52.61L612.72,184.31C612.72,186.41 611.22,188.21 609.22,188.21Z" style="fill:rgb(5,34,103);fill-rule:nonzero;"/>
            <g>
                <path d="M651.62,71.31L633.92,71.31C631.92,71.31 630.12,69.71 630.12,67.61L630.12,51.51C630.12,49.51 631.92,47.81 633.92,47.81L651.62,47.81C653.62,47.81 655.32,49.41 655.32,51.51L655.32,67.61C655.32,69.61 653.72,71.31 651.62,71.31Z" style="fill:rgb(5,34,103);fill-rule:nonzero;"/>
                <path d="M651.12,188.21L634.32,188.21C632.32,188.21 630.62,186.41 630.62,184.41L630.62,88.71C630.62,86.71 632.22,85.01 634.32,85.01L651.12,85.01C653.12,85.01 654.82,86.61 654.82,88.71L654.82,184.41C654.82,186.41 653.12,188.21 651.12,188.21Z" style="fill:rgb(5,34,103);fill-rule:nonzero;"/>
            </g>
            <path d="M712.42,83.71C683.72,83.71 668.72,103.11 668.72,129.31L668.72,144.11C668.72,170.31 683.72,189.71 712.42,189.71C741.12,189.71 756.12,170.31 756.12,144.11L756.12,129.31C756.12,103.11 741.12,83.71 712.42,83.71ZM732.02,144.11C732.02,159.11 725.22,168.81 712.42,168.81C699.62,168.81 692.82,159.11 692.82,144.11L692.82,129.31C692.82,114.31 699.62,104.61 712.42,104.61C725.22,104.61 732.02,114.31 732.02,129.31L732.02,144.11Z" style="fill:rgb(5,34,103);fill-rule:nonzero;"/>
        </g>
        <g transform="matrix(1,0,0,1,-10.3964,-34.8646)">
            <text x="331.616px" y="276.791px" style="font-family:'NeoSansStd-Regular', 'Neo Sans Std', sans-serif;font-size:33px;fill:rgb(94,119,117);">SCHC Ev<tspan x="451.34px " y="276.791px ">e</tspan>rywher<tspan x="570.965px " y="276.791px ">e</tspan></text>
        </g>
    </g>
    <defs>
        <linearGradient id="_Linear1" x1="0" y1="0" x2="1" y2="0" gradientUnits="userSpaceOnUse" gradientTransform="matrix(233.4,0,0,233.4,35.22,153.81)"><stop offset="0" style="stop-color:rgb(229,0,75);stop-opacity:1"/><stop offset="0.99" style="stop-color:rgb(162,26,109);stop-opacity:1"/><stop offset="1" style="stop-color:rgb(162,26,109);stop-opacity:1"/></linearGradient>
    </defs>
</svg>
